STARTFONT 2.1
COMMENT Copyright (C) 1990-1991 EWT Consulting
COMMENT Portions Copyright (C) 1994-1995 Cronyx Ltd.
COMMENT Modified by Serge Vakulenko, <vak@cronyx.ru>
COMMENT Encoding changed to CP1251 by Rabinovich Moisei, <moisei@cs.bgu.ac.il>,$
COMMENT This software may be used, modified, copied, distributed, and sold,
COMMENT in both source and binary form provided that the copyright
COMMENT and these terms are retained. Under no circumstances is the author
COMMENT responsible for the proper functioning of this software, nor does
COMMENT the author assume any responsibility for damages incurred with its use.
FONT -Cronyx-Helvetica-Bold-R-Normal--10-100-75-75-P-56-RAWIN-R
SIZE 10 96 96
FONTBOUNDINGBOX 15 16 0 -3
STARTPROPERTIES 19
DEFAULT_CHAR 32
FONT_ASCENT 13
FONT_DESCENT 3
SPACING "P"
FONTNAME_REGISTRY ""
FOUNDRY "Cronyx"
FAMILY_NAME "Helvetica"
WEIGHT_NAME "Bold"
SLANT "R"
SETWIDTH_NAME "Normal"
ADD_STYLE_NAME ""
AVERAGE_WIDTH 56
CHARSET_REGISTRY "RAWIN"
CHARSET_ENCODING "R"
PIXEL_SIZE 10
POINT_SIZE 100
RESOLUTION_X 75
RESOLUTION_Y 75
COPYRIGHT "Copyright (C) 1990, 1991 EWT Consulting, Portions Copyright (C) 1994 Cronyx Ltd."
ENDPROPERTIES
CHARS 224
STARTCHAR space
ENCODING 32
SWIDTH 250 0
DWIDTH 4 0
BBX 4 16 0 -3
BITMAP
00
00
00
00
00
00
00
00
00
00
00
00
00
00
00
00
ENDCHAR
STARTCHAR exclam
ENCODING 33
SWIDTH 250 0
DWIDTH 4 0
BBX 4 16 0 -3
BITMAP
00
00
00
60
60
60
60
60
60
60
60
00
60
00
00
00
ENDCHAR
STARTCHAR quotedbl
ENCODING 34
SWIDTH 375 0
DWIDTH 6 0
BBX 6 16 0 -3
BITMAP
00
00
00
78
78
78
78
00
00
00
00
00
00
00
00
00
ENDCHAR
STARTCHAR numbersign
ENCODING 35
SWIDTH 500 0
DWIDTH 8 0
BBX 8 16 0 -3
BITMAP
00
00
00
1E
1E
1E
7F
3C
3C
FE
78
78
78
00
00
00
ENDCHAR
STARTCHAR dollar
ENCODING 36
SWIDTH 500 0
DWIDTH 8 0
BBX 8 16 0 -3
BITMAP
00
00
00
18
3C
7E
7E
78
3C
1E
1E
7E
3C
18
00
00
ENDCHAR
STARTCHAR percent
ENCODING 37
SWIDTH 812 0
DWIDTH 13 0
BBX 13 16 0 -3
BITMAP
0000
0000
0000
3800
6C60
6CC0
3980
0300
0600
0CE0
19B0
31B0
00E0
0000
0000
0000
ENDCHAR
STARTCHAR ampersand
ENCODING 38
SWIDTH 625 0
DWIDTH 10 0
BBX 10 16 0 -3
BITMAP
0000
0000
0000
1C00
3600
3600
3600
1C00
3C00
6600
6780
6300
3F80
0000
0000
0000
ENDCHAR
STARTCHAR quoteright
ENCODING 39
SWIDTH 250 0
DWIDTH 4 0
BBX 4 16 0 -3
BITMAP
00
00
00
60
60
60
60
00
00
00
00
00
00
00
00
00
ENDCHAR
STARTCHAR parenleft
ENCODING 40
SWIDTH 312 0
DWIDTH 5 0
BBX 5 16 0 -3
BITMAP
00
00
00
18
30
30
60
60
60
60
60
60
60
30
30
18
ENDCHAR
STARTCHAR parenright
ENCODING 41
SWIDTH 312 0
DWIDTH 5 0
BBX 5 16 0 -3
BITMAP
00
00
00
80
60
60
30
30
30
30
30
30
30
60
60
80
ENDCHAR
STARTCHAR asterisk
ENCODING 42
SWIDTH 375 0
DWIDTH 6 0
BBX 6 16 0 -3
BITMAP
00
00
00
30
BC
78
FC
00
00
00
00
00
00
00
00
00
ENDCHAR
STARTCHAR plus
ENCODING 43
SWIDTH 500 0
DWIDTH 8 0
BBX 8 16 0 -3
BITMAP
00
00
00
00
00
00
18
18
7E
18
18
00
00
00
00
00
ENDCHAR
STARTCHAR comma
ENCODING 44
SWIDTH 250 0
DWIDTH 4 0
BBX 4 16 0 -3
BITMAP
00
00
00
00
00
00
00
00
00
00
00
00
60
80
00
00
ENDCHAR
STARTCHAR minus
ENCODING 45
SWIDTH 312 0
DWIDTH 5 0
BBX 5 16 0 -3
BITMAP
00
00
00
00
00
00
00
00
F8
00
00
00
00
00
00
00
ENDCHAR
STARTCHAR period
ENCODING 46
SWIDTH 250 0
DWIDTH 4 0
BBX 4 16 0 -3
BITMAP
00
00
00
00
00
00
00
00
00
00
00
00
60
00
00
00
ENDCHAR
STARTCHAR slash
ENCODING 47
SWIDTH 312 0
DWIDTH 5 0
BBX 5 16 0 -3
BITMAP
00
00
00
18
18
18
30
30
30
60
60
60
80
80
80
00
ENDCHAR
STARTCHAR zero
ENCODING 48
SWIDTH 500 0
DWIDTH 8 0
BBX 8 16 0 -3
BITMAP
00
00
00
3C
66
66
66
66
66
66
66
66
3C
00
00
00
ENDCHAR
STARTCHAR one
ENCODING 49
SWIDTH 500 0
DWIDTH 8 0
BBX 8 16 0 -3
BITMAP
00
00
00
18
78
18
18
18
18
18
18
18
18
00
00
00
ENDCHAR
STARTCHAR two
ENCODING 50
SWIDTH 500 0
DWIDTH 8 0
BBX 8 16 0 -3
BITMAP
00
00
00
3C
66
66
06
0C
18
30
60
60
7E
00
00
00
ENDCHAR
STARTCHAR three
ENCODING 51
SWIDTH 500 0
DWIDTH 8 0
BBX 8 16 0 -3
BITMAP
00
00
00
3C
66
06
06
1C
06
06
06
66
3C
00
00
00
ENDCHAR
STARTCHAR four
ENCODING 52
SWIDTH 500 0
DWIDTH 8 0
BBX 8 16 0 -3
BITMAP
00
00
00
06
0E
1E
1E
36
66
7E
06
06
06
00
00
00
ENDCHAR
STARTCHAR five
ENCODING 53
SWIDTH 500 0
DWIDTH 8 0
BBX 8 16 0 -3
BITMAP
00
00
00
7E
60
60
60
7C
66
06
06
66
3C
00
00
00
ENDCHAR
STARTCHAR six
ENCODING 54
SWIDTH 500 0
DWIDTH 8 0
BBX 8 16 0 -3
BITMAP
00
00
00
3C
66
60
60
7C
76
66
66
66
3C
00
00
00
ENDCHAR
STARTCHAR seven
ENCODING 55
SWIDTH 500 0
DWIDTH 8 0
BBX 8 16 0 -3
BITMAP
00
00
00
7E
06
06
0C
0C
18
18
30
30
30
00
00
00
ENDCHAR
STARTCHAR eight
ENCODING 56
SWIDTH 500 0
DWIDTH 8 0
BBX 8 16 0 -3
BITMAP
00
00
00
3C
66
66
66
3C
66
66
66
66
3C
00
00
00
ENDCHAR
STARTCHAR nine
ENCODING 57
SWIDTH 500 0
DWIDTH 8 0
BBX 8 16 0 -3
BITMAP
00
00
00
3C
66
66
66
6E
3E
06
06
66
3C
00
00
00
ENDCHAR
STARTCHAR colon
ENCODING 58
SWIDTH 250 0
DWIDTH 4 0
BBX 4 16 0 -3
BITMAP
00
00
00
00
00
00
60
00
00
00
00
00
60
00
00
00
ENDCHAR
STARTCHAR semicolon
ENCODING 59
SWIDTH 250 0
DWIDTH 4 0
BBX 4 16 0 -3
BITMAP
00
00
00
00
00
00
60
00
00
00
00
00
60
80
00
00
ENDCHAR
STARTCHAR less
ENCODING 60
SWIDTH 500 0
DWIDTH 8 0
BBX 8 16 0 -3
BITMAP
00
00
00
00
00
0E
1C
38
70
38
1C
0E
00
00
00
00
ENDCHAR
STARTCHAR equal
ENCODING 61
SWIDTH 500 0
DWIDTH 8 0
BBX 8 16 0 -3
BITMAP
00
00
00
00
00
00
00
7E
00
7E
00
00
00
00
00
00
ENDCHAR
STARTCHAR greater
ENCODING 62
SWIDTH 500 0
DWIDTH 8 0
BBX 8 16 0 -3
BITMAP
00
00
00
00
00
70
38
1C
0E
1C
38
70
00
00
00
00
ENDCHAR
STARTCHAR question
ENCODING 63
SWIDTH 500 0
DWIDTH 8 0
BBX 8 16 0 -3
BITMAP
00
00
00
3C
66
66
06
0C
18
18
18
00
18
00
00
00
ENDCHAR
STARTCHAR at
ENCODING 64
SWIDTH 937 0
DWIDTH 15 0
BBX 15 16 0 -3
BITMAP
0000
0000
07C0
1C70
3018
3018
63EC
666C
666C
66CC
33F8
3000
1C38
07E0
0000
0000
ENDCHAR
STARTCHAR A
ENCODING 65
SWIDTH 625 0
DWIDTH 10 0
BBX 10 16 0 -3
BITMAP
0000
0000
0000
0C00
0C00
1E00
1E00
3300
3300
7F80
6180
80C0
80C0
0000
0000
0000
ENDCHAR
STARTCHAR B
ENCODING 66
SWIDTH 625 0
DWIDTH 10 0
BBX 10 16 0 -3
BITMAP
0000
0000
0000
7F00
6180
6180
6180
7F00
6180
6180
6180
6180
7F00
0000
0000
0000
ENDCHAR
STARTCHAR C
ENCODING 67
SWIDTH 625 0
DWIDTH 10 0
BBX 10 16 0 -3
BITMAP
0000
0000
0000
1F00
3180
60C0
6000
6000
6000
6000
60C0
3180
1F00
0000
0000
0000
ENDCHAR
STARTCHAR D
ENCODING 68
SWIDTH 687 0
DWIDTH 11 0
BBX 11 16 0 -3
BITMAP
0000
0000
0000
7F00
6180
60C0
60C0
60C0
60C0
60C0
60C0
6180
7F00
0000
0000
0000
ENDCHAR
STARTCHAR E
ENCODING 69
SWIDTH 625 0
DWIDTH 10 0
BBX 10 16 0 -3
BITMAP
0000
0000
0000
7F80
6000
6000
6000
7F00
6000
6000
6000
6000
7F80
0000
0000
0000
ENDCHAR
STARTCHAR F
ENCODING 70
SWIDTH 562 0
DWIDTH 9 0
BBX 9 16 0 -3
BITMAP
0000
0000
0000
7F80
6000
6000
6000
7F00
6000
6000
6000
6000
6000
0000
0000
0000
ENDCHAR
STARTCHAR G
ENCODING 71
SWIDTH 687 0
DWIDTH 11 0
BBX 11 16 0 -3
BITMAP
0000
0000
0000
1F00
3180
60C0
6000
6000
63C0
60C0
60C0
31C0
1FC0
0000
0000
0000
ENDCHAR
STARTCHAR H
ENCODING 72
SWIDTH 687 0
DWIDTH 11 0
BBX 11 16 0 -3
BITMAP
0000
0000
0000
60C0
60C0
60C0
60C0
7FC0
60C0
60C0
60C0
60C0
60C0
0000
0000
0000
ENDCHAR
STARTCHAR I
ENCODING 73
SWIDTH 250 0
DWIDTH 4 0
BBX 4 16 0 -3
BITMAP
00
00
00
60
60
60
60
60
60
60
60
60
60
00
00
00
ENDCHAR
STARTCHAR J
ENCODING 74
SWIDTH 500 0
DWIDTH 8 0
BBX 8 16 0 -3
BITMAP
00
00
00
06
06
06
06
06
06
06
66
66
3C
00
00
00
ENDCHAR
STARTCHAR K
ENCODING 75
SWIDTH 562 0
DWIDTH 9 0
BBX 9 16 0 -3
BITMAP
0000
0000
0000
6300
6600
6C00
7800
7000
7800
6C00
6600
6300
6180
0000
0000
0000
ENDCHAR
STARTCHAR L
ENCODING 76
SWIDTH 500 0
DWIDTH 8 0
BBX 8 16 0 -3
BITMAP
00
00
00
60
60
60
60
60
60
60
60
60
7F
00
00
00
ENDCHAR
STARTCHAR M
ENCODING 77
SWIDTH 750 0
DWIDTH 12 0
BBX 12 16 0 -3
BITMAP
0000
0000
0000
6060
6060
70E0
70E0
79E0
79E0
6F60
6F60
6660
6660
0000
0000
0000
ENDCHAR
STARTCHAR N
ENCODING 78
SWIDTH 687 0
DWIDTH 11 0
BBX 11 16 0 -3
BITMAP
0000
0000
0000
60C0
70C0
78C0
78C0
6CC0
66C0
63C0
63C0
61C0
60C0
0000
0000
0000
ENDCHAR
STARTCHAR O
ENCODING 79
SWIDTH 687 0
DWIDTH 11 0
BBX 11 16 0 -3
BITMAP
0000
0000
0000
1F00
3180
60C0
60C0
60C0
60C0
60C0
60C0
3180
1F00
0000
0000
0000
ENDCHAR
STARTCHAR P
ENCODING 80
SWIDTH 625 0
DWIDTH 10 0
BBX 10 16 0 -3
BITMAP
0000
0000
0000
7F00
6180
60C0
60C0
6180
7F00
6000
6000
6000
6000
0000
0000
0000
ENDCHAR
STARTCHAR Q
ENCODING 81
SWIDTH 687 0
DWIDTH 11 0
BBX 11 16 0 -3
BITMAP
0000
0000
0000
1F00
3180
60C0
60C0
60C0
60C0
60C0
63C0
3180
1FC0
0000
0000
0000
ENDCHAR
STARTCHAR R
ENCODING 82
SWIDTH 687 0
DWIDTH 11 0
BBX 11 16 0 -3
BITMAP
0000
0000
0000
7F00
6180
60C0
60C0
6180
7F80
60C0
60C0
60C0
6060
0000
0000
0000
ENDCHAR
STARTCHAR S
ENCODING 83
SWIDTH 625 0
DWIDTH 10 0
BBX 10 16 0 -3
BITMAP
0000
0000
0000
3F00
6180
6180
6000
3C00
0700
0180
6180
6180
3F00
0000
0000
0000
ENDCHAR
STARTCHAR T
ENCODING 84
SWIDTH 625 0
DWIDTH 10 0
BBX 10 16 0 -3
BITMAP
0000
0000
0000
FFC0
0C00
0C00
0C00
0C00
0C00
0C00
0C00
0C00
0C00
0000
0000
0000
ENDCHAR
STARTCHAR U
ENCODING 85
SWIDTH 687 0
DWIDTH 11 0
BBX 11 16 0 -3
BITMAP
0000
0000
0000
60C0
60C0
60C0
60C0
60C0
60C0
60C0
60C0
3180
1F00
0000
0000
0000
ENDCHAR
STARTCHAR V
ENCODING 86
SWIDTH 625 0
DWIDTH 10 0
BBX 10 16 0 -3
BITMAP
0000
0000
0000
80C0
80C0
6180
6180
3300
3300
1E00
1E00
0C00
0C00
0000
0000
0000
ENDCHAR
STARTCHAR W
ENCODING 87
SWIDTH 875 0
DWIDTH 14 0
BBX 14 16 0 -3
BITMAP
0000
0000
0000
830C
830C
830C
6798
6798
3CF0
3CF0
3CF0
1860
1860
0000
0000
0000
ENDCHAR
STARTCHAR X
ENCODING 88
SWIDTH 562 0
DWIDTH 9 0
BBX 9 16 0 -3
BITMAP
0000
0000
0000
8180
8180
6300
3600
1C00
1C00
3600
6300
8180
8180
0000
0000
0000
ENDCHAR
STARTCHAR Y
ENCODING 89
SWIDTH 625 0
DWIDTH 10 0
BBX 10 16 0 -3
BITMAP
0000
0000
0000
80C0
80C0
6180
3300
1E00
0C00
0C00
0C00
0C00
0C00
0000
0000
0000
ENDCHAR
STARTCHAR Z
ENCODING 90
SWIDTH 562 0
DWIDTH 9 0
BBX 9 16 0 -3
BITMAP
0000
0000
0000
7F00
0300
0600
0600
0C00
1800
3000
3000
6000
7F00
0000
0000
0000
ENDCHAR
STARTCHAR bracketleft
ENCODING 91
SWIDTH 312 0
DWIDTH 5 0
BBX 5 16 0 -3
BITMAP
00
00
00
78
60
60
60
60
60
60
60
60
60
60
60
78
ENDCHAR
STARTCHAR backslash
ENCODING 92
SWIDTH 312 0
DWIDTH 5 0
BBX 5 16 0 -3
BITMAP
00
00
00
80
80
80
60
60
60
30
30
30
18
18
18
00
ENDCHAR
STARTCHAR bracketright
ENCODING 93
SWIDTH 312 0
DWIDTH 5 0
BBX 5 16 0 -3
BITMAP
00
00
00
F0
30
30
30
30
30
30
30
30
30
30
30
F0
ENDCHAR
STARTCHAR asciicircum
ENCODING 94
SWIDTH 500 0
DWIDTH 8 0
BBX 8 16 0 -3
BITMAP
00
00
18
3C
66
00
00
00
00
00
00
00
00
00
00
00
ENDCHAR
STARTCHAR underscore
ENCODING 95
SWIDTH 500 0
DWIDTH 8 0
BBX 8 16 0 -3
BITMAP
00
00
00
00
00
00
00
00
00
00
00
00
00
00
FF
00
ENDCHAR
STARTCHAR quoteleft
ENCODING 96
SWIDTH 312 0
DWIDTH 5 0
BBX 5 16 0 -3
BITMAP
00
00
00
60
30
00
00
00
00
00
00
00
00
00
00
00
ENDCHAR
STARTCHAR a
ENCODING 97
SWIDTH 562 0
DWIDTH 9 0
BBX 9 16 0 -3
BITMAP
0000
0000
0000
0000
0000
0000
3E00
6300
3F00
6300
6300
6300
3F80
0000
0000
0000
ENDCHAR
STARTCHAR b
ENCODING 98
SWIDTH 562 0
DWIDTH 9 0
BBX 9 16 0 -3
BITMAP
0000
0000
0000
6000
6000
6000
7E00
7300
6300
6300
6300
7300
7E00
0000
0000
0000
ENDCHAR
STARTCHAR c
ENCODING 99
SWIDTH 500 0
DWIDTH 8 0
BBX 8 16 0 -3
BITMAP
00
00
00
00
00
00
3E
63
60
60
60
63
3E
00
00
00
ENDCHAR
STARTCHAR d
ENCODING 100
SWIDTH 562 0
DWIDTH 9 0
BBX 9 16 0 -3
BITMAP
0000
0000
0000
0300
0300
0300
3F00
6700
6300
6300
6300
6700
3F00
0000
0000
0000
ENDCHAR
STARTCHAR e
ENCODING 101
SWIDTH 562 0
DWIDTH 9 0
BBX 9 16 0 -3
BITMAP
0000
0000
0000
0000
0000
0000
3E00
6300
6300
7F00
6000
6300
3E00
0000
0000
0000
ENDCHAR
STARTCHAR f
ENCODING 102
SWIDTH 250 0
DWIDTH 4 0
BBX 4 16 0 -3
BITMAP
00
00
00
30
60
60
F0
60
60
60
60
60
60
00
00
00
ENDCHAR
STARTCHAR g
ENCODING 103
SWIDTH 562 0
DWIDTH 9 0
BBX 9 16 0 -3
BITMAP
0000
0000
0000
0000
0000
0000
3F00
6700
6300
6300
6300
6700
3F00
0300
0300
3E00
ENDCHAR
STARTCHAR h
ENCODING 104
SWIDTH 500 0
DWIDTH 8 0
BBX 8 16 0 -3
BITMAP
00
00
00
60
60
60
7C
76
66
66
66
66
66
00
00
00
ENDCHAR
STARTCHAR i
ENCODING 105
SWIDTH 250 0
DWIDTH 4 0
BBX 4 16 0 -3
BITMAP
00
00
00
60
00
00
60
60
60
60
60
60
60
00
00
00
ENDCHAR
STARTCHAR j
ENCODING 106
SWIDTH 250 0
DWIDTH 4 0
BBX 4 16 0 -3
BITMAP
00
00
00
60
00
00
60
60
60
60
60
60
60
60
60
80
ENDCHAR
STARTCHAR k
ENCODING 107
SWIDTH 500 0
DWIDTH 8 0
BBX 8 16 0 -3
BITMAP
00
00
00
60
60
60
66
6C
78
78
6C
66
63
00
00
00
ENDCHAR
STARTCHAR l
ENCODING 108
SWIDTH 250 0
DWIDTH 4 0
BBX 4 16 0 -3
BITMAP
00
00
00
60
60
60
60
60
60
60
60
60
60
00
00
00
ENDCHAR
STARTCHAR m
ENCODING 109
SWIDTH 750 0
DWIDTH 12 0
BBX 12 16 0 -3
BITMAP
0000
0000
0000
0000
0000
0000
7DC0
7760
6660
6660
6660
6660
6660
0000
0000
0000
ENDCHAR
STARTCHAR n
ENCODING 110
SWIDTH 500 0
DWIDTH 8 0
BBX 8 16 0 -3
BITMAP
00
00
00
00
00
00
7C
76
66
66
66
66
66
00
00
00
ENDCHAR
STARTCHAR o
ENCODING 111
SWIDTH 562 0
DWIDTH 9 0
BBX 9 16 0 -3
BITMAP
0000
0000
0000
0000
0000
0000
3E00
6300
6300
6300
6300
6300
3E00
0000
0000
0000
ENDCHAR
STARTCHAR p
ENCODING 112
SWIDTH 562 0
DWIDTH 9 0
BBX 9 16 0 -3
BITMAP
0000
0000
0000
0000
0000
0000
7E00
7300
6300
6300
6300
7300
7E00
6000
6000
6000
ENDCHAR
STARTCHAR q
ENCODING 113
SWIDTH 562 0
DWIDTH 9 0
BBX 9 16 0 -3
BITMAP
0000
0000
0000
0000
0000
0000
3F00
6700
6300
6300
6300
6700
3F00
0300
0300
0300
ENDCHAR
STARTCHAR r
ENCODING 114
SWIDTH 312 0
DWIDTH 5 0
BBX 5 16 0 -3
BITMAP
00
00
00
00
00
00
78
70
60
60
60
60
60
00
00
00
ENDCHAR
STARTCHAR s
ENCODING 115
SWIDTH 500 0
DWIDTH 8 0
BBX 8 16 0 -3
BITMAP
00
00
00
00
00
00
3C
66
60
3C
06
66
3C
00
00
00
ENDCHAR
STARTCHAR t
ENCODING 116
SWIDTH 250 0
DWIDTH 4 0
BBX 4 16 0 -3
BITMAP
00
00
00
00
60
60
F0
60
60
60
60
60
30
00
00
00
ENDCHAR
STARTCHAR u
ENCODING 117
SWIDTH 500 0
DWIDTH 8 0
BBX 8 16 0 -3
BITMAP
00
00
00
00
00
00
66
66
66
66
66
6E
3E
00
00
00
ENDCHAR
STARTCHAR v
ENCODING 118
SWIDTH 500 0
DWIDTH 8 0
BBX 8 16 0 -3
BITMAP
00
00
00
00
00
00
83
83
66
66
3C
3C
18
00
00
00
ENDCHAR
STARTCHAR w
ENCODING 119
SWIDTH 625 0
DWIDTH 10 0
BBX 10 16 0 -3
BITMAP
0000
0000
0000
0000
0000
0000
8CC0
8CC0
7F80
7F80
7F80
3300
3300
0000
0000
0000
ENDCHAR
STARTCHAR x
ENCODING 120
SWIDTH 437 0
DWIDTH 7 0
BBX 7 16 0 -3
BITMAP
00
00
00
00
00
00
86
6C
38
38
38
6C
86
00
00
00
ENDCHAR
STARTCHAR y
ENCODING 121
SWIDTH 500 0
DWIDTH 8 0
BBX 8 16 0 -3
BITMAP
00
00
00
00
00
00
83
83
66
66
3C
3C
18
18
30
E0
ENDCHAR
STARTCHAR z
ENCODING 122
SWIDTH 437 0
DWIDTH 7 0
BBX 7 16 0 -3
BITMAP
00
00
00
00
00
00
7C
0C
18
30
30
60
7C
00
00
00
ENDCHAR
STARTCHAR braceleft
ENCODING 123
SWIDTH 375 0
DWIDTH 6 0
BBX 6 16 0 -3
BITMAP
00
00
00
1C
30
30
30
30
30
E0
30
30
30
30
30
1C
ENDCHAR
STARTCHAR bar
ENCODING 124
SWIDTH 250 0
DWIDTH 4 0
BBX 4 16 0 -3
BITMAP
00
00
00
60
60
60
60
60
60
60
60
60
60
60
60
60
ENDCHAR
STARTCHAR braceright
ENCODING 125
SWIDTH 375 0
DWIDTH 6 0
BBX 6 16 0 -3
BITMAP
00
00
00
E0
30
30
30
30
30
1C
30
30
30
30
30
E0
ENDCHAR
STARTCHAR asciitilde
ENCODING 126
SWIDTH 625 0
DWIDTH 10 0
BBX 10 16 0 -3
BITMAP
0000
0000
0000
3980
6D80
6700
0000
0000
0000
0000
0000
0000
0000
0000
0000
0000
ENDCHAR
STARTCHAR C177
ENCODING -1
SWIDTH 312 0
DWIDTH 5 0
BBX 5 16 0 -3
BITMAP
00
00
00
70
70
70
70
70
70
70
70
70
70
00
00
00
ENDCHAR
STARTCHAR C200
ENCODING -1
SWIDTH 312 0
DWIDTH 5 0
BBX 5 16 0 -3
BITMAP
00
00
00
70
70
70
70
70
70
70
70
70
70
00
00
00
ENDCHAR
STARTCHAR C201
ENCODING -1
SWIDTH 312 0
DWIDTH 5 0
BBX 5 16 0 -3
BITMAP
00
00
00
70
70
70
70
70
70
70
70
70
70
00
00
00
ENDCHAR
STARTCHAR C202
ENCODING -1
SWIDTH 312 0
DWIDTH 5 0
BBX 5 16 0 -3
BITMAP
00
00
00
70
70
70
70
70
70
70
70
70
70
00
00
00
ENDCHAR
STARTCHAR C203
ENCODING -1
SWIDTH 312 0
DWIDTH 5 0
BBX 5 16 0 -3
BITMAP
00
00
00
70
70
70
70
70
70
70
70
70
70
00
00
00
ENDCHAR
STARTCHAR C204
ENCODING -1
SWIDTH 312 0
DWIDTH 5 0
BBX 5 16 0 -3
BITMAP
00
00
00
70
70
70
70
70
70
70
70
70
70
00
00
00
ENDCHAR
STARTCHAR C205
ENCODING -1
SWIDTH 312 0
DWIDTH 5 0
BBX 5 16 0 -3
BITMAP
00
00
00
70
70
70
70
70
70
70
70
70
70
00
00
00
ENDCHAR
STARTCHAR C206
ENCODING -1
SWIDTH 312 0
DWIDTH 5 0
BBX 5 16 0 -3
BITMAP
00
00
00
70
70
70
70
70
70
70
70
70
70
00
00
00
ENDCHAR
STARTCHAR C207
ENCODING -1
SWIDTH 312 0
DWIDTH 5 0
BBX 5 16 0 -3
BITMAP
00
00
00
70
70
70
70
70
70
70
70
70
70
00
00
00
ENDCHAR
STARTCHAR C210
ENCODING -1
SWIDTH 312 0
DWIDTH 5 0
BBX 5 16 0 -3
BITMAP
00
00
00
70
70
70
70
70
70
70
70
70
70
00
00
00
ENDCHAR
STARTCHAR C211
ENCODING -1
SWIDTH 312 0
DWIDTH 5 0
BBX 5 16 0 -3
BITMAP
00
00
00
70
70
70
70
70
70
70
70
70
70
00
00
00
ENDCHAR
STARTCHAR C212
ENCODING -1
SWIDTH 312 0
DWIDTH 5 0
BBX 5 16 0 -3
BITMAP
00
00
00
70
70
70
70
70
70
70
70
70
70
00
00
00
ENDCHAR
STARTCHAR C213
ENCODING -1
SWIDTH 312 0
DWIDTH 5 0
BBX 5 16 0 -3
BITMAP
00
00
00
70
70
70
70
70
70
70
70
70
70
00
00
00
ENDCHAR
STARTCHAR C214
ENCODING -1
SWIDTH 312 0
DWIDTH 5 0
BBX 5 16 0 -3
BITMAP
00
00
00
70
70
70
70
70
70
70
70
70
70
00
00
00
ENDCHAR
STARTCHAR C215
ENCODING -1
SWIDTH 312 0
DWIDTH 5 0
BBX 5 16 0 -3
BITMAP
00
00
00
70
70
70
70
70
70
70
70
70
70
00
00
00
ENDCHAR
STARTCHAR C216
ENCODING -1
SWIDTH 312 0
DWIDTH 5 0
BBX 5 16 0 -3
BITMAP
00
00
00
70
70
70
70
70
70
70
70
70
70
00
00
00
ENDCHAR
STARTCHAR C217
ENCODING -1
SWIDTH 312 0
DWIDTH 5 0
BBX 5 16 0 -3
BITMAP
00
00
00
70
70
70
70
70
70
70
70
70
70
00
00
00
ENDCHAR
STARTCHAR C220
ENCODING -1
SWIDTH 312 0
DWIDTH 5 0
BBX 5 16 0 -3
BITMAP
00
00
00
70
70
70
70
70
70
70
70
70
70
00
00
00
ENDCHAR
STARTCHAR C221
ENCODING -1
SWIDTH 250 0
DWIDTH 4 0
BBX 4 16 0 -3
BITMAP
00
00
00
30
60
00
00
00
00
00
00
00
00
00
00
00
ENDCHAR
STARTCHAR C222
ENCODING -1
SWIDTH 250 0
DWIDTH 4 0
BBX 4 16 0 -3
BITMAP
00
00
00
60
80
00
00
00
00
00
00
00
00
00
00
00
ENDCHAR
STARTCHAR C223
ENCODING -1
SWIDTH 312 0
DWIDTH 5 0
BBX 5 16 0 -3
BITMAP
00
00
00
70
70
70
70
70
70
70
70
70
70
00
00
00
ENDCHAR
STARTCHAR C224
ENCODING -1
SWIDTH 312 0
DWIDTH 5 0
BBX 5 16 0 -3
BITMAP
00
00
00
70
70
70
70
70
70
70
70
70
70
00
00
00
ENDCHAR
STARTCHAR C225
ENCODING -1
SWIDTH 312 0
DWIDTH 5 0
BBX 5 16 0 -3
BITMAP
00
00
00
70
70
70
70
70
70
70
70
70
70
00
00
00
ENDCHAR
STARTCHAR C226
ENCODING -1
SWIDTH 312 0
DWIDTH 5 0
BBX 5 16 0 -3
BITMAP
00
00
00
70
70
70
70
70
70
70
70
70
70
00
00
00
ENDCHAR
STARTCHAR C227
ENCODING -1
SWIDTH 312 0
DWIDTH 5 0
BBX 5 16 0 -3
BITMAP
00
00
00
70
70
70
70
70
70
70
70
70
70
00
00
00
ENDCHAR
STARTCHAR C230
ENCODING -1
SWIDTH 312 0
DWIDTH 5 0
BBX 5 16 0 -3
BITMAP
00
00
00
70
70
70
70
70
70
70
70
70
70
00
00
00
ENDCHAR
STARTCHAR C231
ENCODING -1
SWIDTH 312 0
DWIDTH 5 0
BBX 5 16 0 -3
BITMAP
00
00
00
70
70
70
70
70
70
70
70
70
70
00
00
00
ENDCHAR
STARTCHAR C232
ENCODING -1
SWIDTH 312 0
DWIDTH 5 0
BBX 5 16 0 -3
BITMAP
00
00
00
70
70
70
70
70
70
70
70
70
70
00
00
00
ENDCHAR
STARTCHAR C233
ENCODING -1
SWIDTH 312 0
DWIDTH 5 0
BBX 5 16 0 -3
BITMAP
00
00
00
70
70
70
70
70
70
70
70
70
70
00
00
00
ENDCHAR
STARTCHAR C234
ENCODING -1
SWIDTH 312 0
DWIDTH 5 0
BBX 5 16 0 -3
BITMAP
00
00
00
70
70
70
70
70
70
70
70
70
70
00
00
00
ENDCHAR
STARTCHAR C235
ENCODING -1
SWIDTH 312 0
DWIDTH 5 0
BBX 5 16 0 -3
BITMAP
00
00
00
70
70
70
70
70
70
70
70
70
70
00
00
00
ENDCHAR
STARTCHAR C236
ENCODING -1
SWIDTH 312 0
DWIDTH 5 0
BBX 5 16 0 -3
BITMAP
00
00
00
70
70
70
70
70
70
70
70
70
70
00
00
00
ENDCHAR
STARTCHAR C237
ENCODING -1
SWIDTH 312 0
DWIDTH 5 0
BBX 5 16 0 -3
BITMAP
00
00
00
70
70
70
70
70
70
70
70
70
70
00
00
00
ENDCHAR
STARTCHAR C240
ENCODING 160
SWIDTH 250 0
DWIDTH 4 0
BBX 4 16 0 -3
BITMAP
00
00
00
00
00
00
00
00
00
00
00
00
00
00
00
00
ENDCHAR
STARTCHAR exclamdown
ENCODING 161
SWIDTH 250 0
DWIDTH 4 0
BBX 4 16 0 -3
BITMAP
00
00
00
00
00
00
60
00
60
60
60
60
60
60
60
60
ENDCHAR
STARTCHAR cent
ENCODING 162
SWIDTH 500 0
DWIDTH 8 0
BBX 8 16 0 -3
BITMAP
00
00
00
00
00
06
3C
6E
6C
78
78
76
3C
60
00
00
ENDCHAR
STARTCHAR sterling
ENCODING 184
SWIDTH 500 0
DWIDTH 8 0
BBX 8 16 0 -3
BITMAP
00
00
00
38
6C
60
60
30
7C
30
30
60
7E
00
00
00
ENDCHAR
STARTCHAR currency
ENCODING 164
SWIDTH 500 0
DWIDTH 8 0
BBX 8 16 0 -3
BITMAP
00
00
00
66
3C
3C
3C
66
00
00
00
00
00
00
00
00
ENDCHAR
STARTCHAR yen
ENCODING 165
SWIDTH 500 0
DWIDTH 8 0
BBX 8 16 0 -3
BITMAP
00
00
00
83
83
66
3C
FF
18
FF
18
18
18
00
00
00
ENDCHAR
STARTCHAR brokenbar
ENCODING 166
SWIDTH 250 0
DWIDTH 4 0
BBX 4 16 0 -3
BITMAP
00
00
00
60
60
60
60
60
60
00
60
60
60
60
60
60
ENDCHAR
STARTCHAR section
ENCODING 167
SWIDTH 500 0
DWIDTH 8 0
BBX 8 16 0 -3
BITMAP
00
00
00
3C
66
30
38
6C
36
1C
0C
66
3C
00
00
00
ENDCHAR
STARTCHAR dieresis
ENCODING 168
SWIDTH 312 0
DWIDTH 5 0
BBX 5 16 0 -3
BITMAP
00
00
00
98
00
00
00
00
00
00
00
00
00
00
00
00
ENDCHAR
STARTCHAR copyright
ENCODING 169
SWIDTH 562 0
DWIDTH 9 0
BBX 9 16 0 -3
BITMAP
0000
0000
0000
3E00
6300
9F80
B180
B180
9F80
6300
3E00
0000
0000
0000
0000
0000
ENDCHAR
STARTCHAR ordfeminine
ENCODING 170
SWIDTH 375 0
DWIDTH 6 0
BBX 6 16 0 -3
BITMAP
00
00
00
30
18
38
78
38
00
78
00
00
00
00
00
00
ENDCHAR
STARTCHAR guillemotleft
ENCODING 171
SWIDTH 500 0
DWIDTH 8 0
BBX 8 16 0 -3
BITMAP
00
00
00
00
00
00
00
1E
3C
78
3C
1E
00
00
00
00
ENDCHAR
STARTCHAR logicalnot
ENCODING 172
SWIDTH 500 0
DWIDTH 8 0
BBX 8 16 0 -3
BITMAP
00
00
00
00
00
00
00
7E
06
00
00
00
00
00
00
00
ENDCHAR
STARTCHAR hyphen
ENCODING 173
SWIDTH 312 0
DWIDTH 5 0
BBX 5 16 0 -3
BITMAP
00
00
00
00
00
00
00
00
F8
00
00
00
00
00
00
00
ENDCHAR
STARTCHAR registered
ENCODING 174
SWIDTH 562 0
DWIDTH 9 0
BBX 9 16 0 -3
BITMAP
0000
0000
0000
3E00
6300
BD80
B780
BD80
B780
6300
3E00
0000
0000
0000
0000
0000
ENDCHAR
STARTCHAR macron
ENCODING 175
SWIDTH 500 0
DWIDTH 8 0
BBX 8 16 0 -3
BITMAP
00
FF
00
00
00
00
00
00
00
00
00
00
00
00
00
00
ENDCHAR
STARTCHAR degree
ENCODING 176
SWIDTH 312 0
DWIDTH 5 0
BBX 5 16 0 -3
BITMAP
00
00
00
30
78
30
00
00
00
00
00
00
00
00
00
00
ENDCHAR
STARTCHAR plusminus
ENCODING 177
SWIDTH 500 0
DWIDTH 8 0
BBX 8 16 0 -3
BITMAP
00
00
00
00
00
00
18
18
7E
18
18
00
7E
00
00
00
ENDCHAR
STARTCHAR twosuperior
ENCODING 178
SWIDTH 312 0
DWIDTH 5 0
BBX 5 16 0 -3
BITMAP
00
00
00
70
98
30
60
F8
00
00
00
00
00
00
00
00
ENDCHAR
STARTCHAR threesuperior
ENCODING 168
SWIDTH 312 0
DWIDTH 5 0
BBX 5 16 0 -3
BITMAP
00
00
00
70
98
30
98
70
00
00
00
00
00
00
00
00
ENDCHAR
STARTCHAR acute
ENCODING 180
SWIDTH 312 0
DWIDTH 5 0
BBX 5 16 0 -3
BITMAP
00
00
00
30
60
00
00
00
00
00
00
00
00
00
00
00
ENDCHAR
STARTCHAR mu
ENCODING 181
SWIDTH 500 0
DWIDTH 8 0
BBX 8 16 0 -3
BITMAP
00
00
00
00
00
66
66
66
66
66
66
66
7F
60
60
60
ENDCHAR
STARTCHAR paragraph
ENCODING 182
SWIDTH 500 0
DWIDTH 8 0
BBX 8 16 0 -3
BITMAP
00
00
00
3E
7E
7E
7E
7E
3E
1E
1E
1E
1E
00
00
00
ENDCHAR
STARTCHAR periodcentered
ENCODING 183
SWIDTH 250 0
DWIDTH 4 0
BBX 4 16 0 -3
BITMAP
00
00
00
00
00
00
00
60
00
00
00
00
00
00
00
00
ENDCHAR
STARTCHAR cedilla
ENCODING 184
SWIDTH 312 0
DWIDTH 5 0
BBX 5 16 0 -3
BITMAP
00
00
00
00
00
00
00
00
00
00
00
00
00
30
18
70
ENDCHAR
STARTCHAR onesuperior
ENCODING 185
SWIDTH 312 0
DWIDTH 5 0
BBX 5 16 0 -3
BITMAP
00
00
00
30
70
30
30
30
00
00
00
00
00
00
00
00
ENDCHAR
STARTCHAR ordmasculine
ENCODING 186
SWIDTH 375 0
DWIDTH 6 0
BBX 6 16 0 -3
BITMAP
00
00
00
30
78
78
78
30
00
78
00
00
00
00
00
00
ENDCHAR
STARTCHAR guillemotright
ENCODING 187
SWIDTH 500 0
DWIDTH 8 0
BBX 8 16 0 -3
BITMAP
00
00
00
00
00
00
00
78
3C
1E
3C
78
00
00
00
00
ENDCHAR
STARTCHAR onequarter
ENCODING 188
SWIDTH 625 0
DWIDTH 10 0
BBX 10 16 0 -3
BITMAP
0000
0000
0000
6300
E300
6600
6600
6C00
0CC0
19C0
1BC0
37C0
30C0
0000
0000
0000
ENDCHAR
STARTCHAR onehalf
ENCODING 189
SWIDTH 625 0
DWIDTH 10 0
BBX 10 16 0 -3
BITMAP
0000
0000
0000
6300
E300
6600
6600
6C00
0F80
1EC0
1980
3300
37C0
0000
0000
0000
ENDCHAR
STARTCHAR threequarters
ENCODING 190
SWIDTH 625 0
DWIDTH 10 0
BBX 10 16 0 -3
BITMAP
0000
0000
0000
7300
9B00
3600
9E00
7C00
0CC0
19C0
1BC0
37C0
30C0
0000
0000
0000
ENDCHAR
STARTCHAR questiondown
ENCODING 191
SWIDTH 500 0
DWIDTH 8 0
BBX 8 16 0 -3
BITMAP
00
00
00
00
00
00
18
00
18
18
18
30
60
66
66
3C
ENDCHAR
STARTCHAR cyr-A
ENCODING 192
SWIDTH 625 0
DWIDTH 10 0
BBX 10 16 0 -3
BITMAP
0000
0000
0000
0C00
0C00
1E00
1E00
3300
3300
7F80
6180
80C0
80C0
0000
0000
0000
ENDCHAR
STARTCHAR cyr-Be
ENCODING 193
SWIDTH 625 0
DWIDTH 10 0
BBX 10 16 0 -3
BITMAP
0000
0000
0000
7F00
6000
6000
6000
7F00
6180
6180
6180
6180
7F00
0000
0000
0000
ENDCHAR
STARTCHAR cyr-Ve
ENCODING 194
SWIDTH 625 0
DWIDTH 10 0
BBX 10 16 0 -3
BITMAP
0000
0000
0000
7F00
6180
6180
6180
7F00
6180
6180
6180
6180
7F00
0000
0000
0000
ENDCHAR
STARTCHAR cyr-Ghe
ENCODING 195
SWIDTH 562 0
DWIDTH 9 0
BBX 9 16 0 -3
BITMAP
0000
0000
0000
7F00
6000
6000
6000
6000
6000
6000
6000
6000
6000
0000
0000
0000
ENDCHAR
STARTCHAR cyr-De
ENCODING 196
SWIDTH 687 0
DWIDTH 11 0
BBX 11 16 0 -3
BITMAP
0000
0000
0000
1F80
1980
1980
1980
1980
1980
1980
1980
3180
7FC0
60C0
60C0
0000
ENDCHAR
STARTCHAR cyr-Ie
ENCODING 197
SWIDTH 625 0
DWIDTH 10 0
BBX 10 16 0 -3
BITMAP
0000
0000
0000
7F80
6000
6000
6000
7F00
6000
6000
6000
6000
7F80
0000
0000
0000
ENDCHAR
STARTCHAR cyr-Zhe
ENCODING 198
SWIDTH 875 0
DWIDTH 14 0
BBX 14 16 0 -3
BITMAP
0000
0000
0000
6318
3330
1B60
0FC0
0780
0FC0
1B60
3330
6318
830C
0000
0000
0000
ENDCHAR
STARTCHAR cyr-Ze
ENCODING 199
SWIDTH 625 0
DWIDTH 10 0
BBX 10 16 0 -3
BITMAP
0000
0000
0000
3F00
6180
0180
0180
0F00
0180
0180
0180
6180
3F00
0000
0000
0000
ENDCHAR
STARTCHAR cyr-I
ENCODING 200
SWIDTH 687 0
DWIDTH 11 0
BBX 11 16 0 -3
BITMAP
0000
0000
0000
60C0
60C0
60C0
61C0
63C0
66C0
6CC0
78C0
70C0
60C0
0000
0000
0000
ENDCHAR
STARTCHAR cyr-I-short
ENCODING 201
SWIDTH 687 0
DWIDTH 11 0
BBX 11 16 0 -3
BITMAP
0000
1B00
0E00
60C0
60C0
60C0
61C0
63C0
66C0
6CC0
78C0
70C0
60C0
0000
0000
0000
ENDCHAR
STARTCHAR cyr-Ka
ENCODING 202
SWIDTH 562 0
DWIDTH 9 0
BBX 9 16 0 -3
BITMAP
0000
0000
0000
6300
6600
6C00
7800
7000
7800
6C00
6600
6300
6180
0000
0000
0000
ENDCHAR
STARTCHAR cyr-El
ENCODING 203
SWIDTH 812 0
DWIDTH 13 0
BBX 13 16 0 -3
BITMAP
0000
0000
0000
1FF0
1830
1830
1830
1830
1830
1830
1830
1830
7030
0000
0000
0000
ENDCHAR
STARTCHAR cyr-Em
ENCODING 204
SWIDTH 750 0
DWIDTH 12 0
BBX 12 16 0 -3
BITMAP
0000
0000
0000
6060
6060
70E0
70E0
79E0
79E0
6F60
6F60
6660
6660
0000
0000
0000
ENDCHAR
STARTCHAR cyr-En
ENCODING 205
SWIDTH 687 0
DWIDTH 11 0
BBX 11 16 0 -3
BITMAP
0000
0000
0000
60C0
60C0
60C0
60C0
7FC0
60C0
60C0
60C0
60C0
60C0
0000
0000
0000
ENDCHAR
STARTCHAR cyr-O
ENCODING 206
SWIDTH 687 0
DWIDTH 11 0
BBX 11 16 0 -3
BITMAP
0000
0000
0000
1F00
3180
60C0
60C0
60C0
60C0
60C0
60C0
3180
1F00
0000
0000
0000
ENDCHAR
STARTCHAR cyr-Pe
ENCODING 207
SWIDTH 687 0
DWIDTH 11 0
BBX 11 16 0 -3
BITMAP
0000
0000
0000
7FC0
60C0
60C0
60C0
60C0
60C0
60C0
60C0
60C0
60C0
0000
0000
0000
ENDCHAR
STARTCHAR cyr-Er
ENCODING 208
SWIDTH 625 0
DWIDTH 10 0
BBX 10 16 0 -3
BITMAP
0000
0000
0000
7F00
6180
60C0
60C0
6180
7F00
6000
6000
6000
6000
0000
0000
0000
ENDCHAR
STARTCHAR cyr-Es
ENCODING 209
SWIDTH 625 0
DWIDTH 10 0
BBX 10 16 0 -3
BITMAP
0000
0000
0000
1F00
3180
60C0
6000
6000
6000
6000
60C0
3180
1F00
0000
0000
0000
ENDCHAR
STARTCHAR cyr-Te
ENCODING 210
SWIDTH 625 0
DWIDTH 10 0
BBX 10 16 0 -3
BITMAP
0000
0000
0000
FFC0
0C00
0C00
0C00
0C00
0C00
0C00
0C00
0C00
0C00
0000
0000
0000
ENDCHAR
STARTCHAR cyr-U
ENCODING 211
SWIDTH 625 0
DWIDTH 10 0
BBX 10 16 0 -3
BITMAP
0000
0000
0000
80C0
80C0
6180
3300
1E00
0C00
0C00
1800
3000
E000
0000
0000
0000
ENDCHAR
STARTCHAR cyr-Ef
ENCODING 212
SWIDTH 687 0
DWIDTH 11 0
BBX 11 16 0 -3
BITMAP
0000
0000
0000
1F80
36C0
6660
6660
6660
6660
6660
36C0
1F80
0600
0000
0000
0000
ENDCHAR
STARTCHAR cyr-Kha
ENCODING 213
SWIDTH 562 0
DWIDTH 9 0
BBX 9 16 0 -3
BITMAP
0000
0000
0000
8180
8180
6300
3600
1C00
1C00
3600
6300
8180
8180
0000
0000
0000
ENDCHAR
STARTCHAR cyr-Tse
ENCODING 214
SWIDTH 687 0
DWIDTH 11 0
BBX 11 16 0 -3
BITMAP
0000
0000
0000
60C0
60C0
60C0
60C0
60C0
60C0
60C0
60C0
60C0
7FE0
0060
0060
0000
ENDCHAR
STARTCHAR cyr-Che
ENCODING 215
SWIDTH 687 0
DWIDTH 11 0
BBX 11 16 0 -3
BITMAP
0000
0000
0000
60C0
60C0
60C0
60C0
3FC0
00C0
00C0
00C0
00C0
00C0
0000
0000
0000
ENDCHAR
STARTCHAR cyr-Sha
ENCODING 216
SWIDTH 875 0
DWIDTH 14 0
BBX 14 16 0 -3
BITMAP
0000
0000
0000
6318
6318
6318
6318
6318
6318
6318
6318
6318
7FF8
0000
0000
0000
ENDCHAR
STARTCHAR cyr-Shcha
ENCODING 217
SWIDTH 875 0
DWIDTH 14 0
BBX 14 16 0 -3
BITMAP
0000
0000
0000
6318
6318
6318
6318
6318
6318
6318
6318
6318
7FFC
000C
000C
0000
ENDCHAR
STARTCHAR cyr-Ier
ENCODING 218
SWIDTH 750 0
DWIDTH 12 0
BBX 12 16 0 -3
BITMAP
0000
0000
0000
F000
3000
3000
3000
3FC0
3060
3060
3060
3060
3FC0
0000
0000
0000
ENDCHAR
STARTCHAR cyr-Iery
ENCODING 219
SWIDTH 812 0
DWIDTH 13 0
BBX 13 16 0 -3
BITMAP
0000
0000
0000
6030
6030
6030
6030
7FB0
60F0
60F0
60F0
60F0
7FB0
0000
0000
0000
ENDCHAR
STARTCHAR cyr-Ierik
ENCODING 220
SWIDTH 687 0
DWIDTH 11 0
BBX 11 16 0 -3
BITMAP
0000
0000
0000
6000
6000
6000
6000
7F80
60C0
60C0
60C0
60C0
7F80
0000
0000
0000
ENDCHAR
STARTCHAR cyr-E-rev
ENCODING 221
SWIDTH 687 0
DWIDTH 11 0
BBX 11 16 0 -3
BITMAP
0000
0000
0000
1F00
3180
60C0
00C0
0FC0
00C0
00C0
60C0
3180
1F00
0000
0000
0000
ENDCHAR
STARTCHAR cyr-Yu
ENCODING 222
SWIDTH 750 0
DWIDTH 12 0
BBX 12 16 0 -3
BITMAP
0000
0000
0000
6780
6CC0
7860
7860
7860
7860
7860
7860
6CC0
6780
0000
0000
0000
ENDCHAR
STARTCHAR cyr-Ya
ENCODING 223
SWIDTH 687 0
DWIDTH 11 0
BBX 11 16 0 -3
BITMAP
0000
0000
0000
3FC0
60C0
60C0
60C0
60C0
3FC0
0CC0
18C0
30C0
60C0
0000
0000
0000
ENDCHAR
STARTCHAR cyr-a
ENCODING 224
SWIDTH 562 0
DWIDTH 9 0
BBX 9 16 0 -3
BITMAP
0000
0000
0000
0000
0000
0000
3E00
6300
3F00
6300
6300
6300
3F80
0000
0000
0000
ENDCHAR
STARTCHAR cyr-be
ENCODING 225
SWIDTH 562 0
DWIDTH 9 0
BBX 9 16 0 -3
BITMAP
0000
0000
0000
0300
3E00
6000
7E00
6300
6300
6300
6300
6300
3E00
0000
0000
0000
ENDCHAR
STARTCHAR cyr-ve
ENCODING 226
SWIDTH 562 0
DWIDTH 9 0
BBX 9 16 0 -3
BITMAP
0000
0000
0000
0000
0000
0000
7E00
6300
6300
7F00
6300
6300
7E00
0000
0000
0000
ENDCHAR
STARTCHAR cyr-ghe
ENCODING 227
SWIDTH 500 0
DWIDTH 8 0
BBX 8 16 0 -3
BITMAP
00
00
00
00
00
00
7E
60
60
60
60
60
60
00
00
00
ENDCHAR
STARTCHAR cyr-de
ENCODING 228
SWIDTH 687 0
DWIDTH 11 0
BBX 11 16 0 -3
BITMAP
0000
0000
0000
0000
0000
0000
1F80
1980
1980
1980
1980
3180
7FC0
60C0
60C0
0000
ENDCHAR
STARTCHAR cyr-ie
ENCODING 229
SWIDTH 562 0
DWIDTH 9 0
BBX 9 16 0 -3
BITMAP
0000
0000
0000
0000
0000
0000
3E00
6300
6300
7F00
6000
6300
3E00
0000
0000
0000
ENDCHAR
STARTCHAR cyr-zhe
ENCODING 230
SWIDTH 750 0
DWIDTH 12 0
BBX 12 16 0 -3
BITMAP
0000
0000
0000
0000
0000
0000
6660
36C0
1F80
1F80
36C0
6660
8630
0000
0000
0000
ENDCHAR
STARTCHAR cyr-z
ENCODING 231
SWIDTH 562 0
DWIDTH 9 0
BBX 9 16 0 -3
BITMAP
0000
0000
0000
0000
0000
0000
3E00
6300
0300
1E00
0300
6300
3E00
0000
0000
0000
ENDCHAR
STARTCHAR cyr-i
ENCODING 232
SWIDTH 562 0
DWIDTH 9 0
BBX 9 16 0 -3
BITMAP
0000
0000
0000
0000
0000
0000
6300
6300
6700
6F00
7B00
7300
6300
0000
0000
0000
ENDCHAR
STARTCHAR cyr-i-short
ENCODING 233
SWIDTH 562 0
DWIDTH 9 0
BBX 9 16 0 -3
BITMAP
0000
0000
0000
0000
3600
1C00
6300
6300
6700
6F00
7B00
7300
6300
0000
0000
0000
ENDCHAR
STARTCHAR cyr-ka
ENCODING 234
SWIDTH 500 0
DWIDTH 8 0
BBX 8 16 0 -3
BITMAP
00
00
00
00
00
00
66
6C
78
78
6C
66
63
00
00
00
ENDCHAR
STARTCHAR cyr-el
ENCODING 235
SWIDTH 562 0
DWIDTH 9 0
BBX 9 16 0 -3
BITMAP
0000
0000
0000
0000
0000
0000
3F00
3300
3300
3300
3300
3300
6300
0000
0000
0000
ENDCHAR
STARTCHAR cyr-em
ENCODING 236
SWIDTH 625 0
DWIDTH 10 0
BBX 10 16 0 -3
BITMAP
0000
0000
0000
0000
0000
0000
6180
7380
7F80
6D80
6180
6180
6180
0000
0000
0000
ENDCHAR
STARTCHAR cyr-en
ENCODING 237
SWIDTH 500 0
DWIDTH 8 0
BBX 8 16 0 -3
BITMAP
00
00
00
00
00
00
66
66
66
7E
66
66
66
00
00
00
ENDCHAR
STARTCHAR cyr-o
ENCODING 238
SWIDTH 562 0
DWIDTH 9 0
BBX 9 16 0 -3
BITMAP
0000
0000
0000
0000
0000
0000
3E00
6300
6300
6300
6300
6300
3E00
0000
0000
0000
ENDCHAR
STARTCHAR cyr-pe
ENCODING 239
SWIDTH 500 0
DWIDTH 8 0
BBX 8 16 0 -3
BITMAP
00
00
00
00
00
00
7E
66
66
66
66
66
66
00
00
00
ENDCHAR
STARTCHAR cyr-er
ENCODING 240
SWIDTH 562 0
DWIDTH 9 0
BBX 9 16 0 -3
BITMAP
0000
0000
0000
0000
0000
0000
7E00
7300
6300
6300
6300
7300
7E00
6000
6000
6000
ENDCHAR
STARTCHAR cyr-es
ENCODING 241
SWIDTH 500 0
DWIDTH 8 0
BBX 8 16 0 -3
BITMAP
00
00
00
00
00
00
3E
63
60
60
60
63
3E
00
00
00
ENDCHAR
STARTCHAR cyr-te
ENCODING 242
SWIDTH 625 0
DWIDTH 10 0
BBX 10 16 0 -3
BITMAP
0000
0000
0000
0000
0000
0000
7F80
0C00
0C00
0C00
0C00
0C00
0C00
0000
0000
0000
ENDCHAR
STARTCHAR cyr-u
ENCODING 243
SWIDTH 500 0
DWIDTH 8 0
BBX 8 16 0 -3
BITMAP
00
00
00
00
00
00
83
83
66
66
3C
3C
18
18
30
E0
ENDCHAR
STARTCHAR cyr-ef
ENCODING 244
SWIDTH 625 0
DWIDTH 10 0
BBX 10 16 0 -3
BITMAP
0000
0000
0000
0000
0000
0C00
3F00
6D80
6D80
6D80
6D80
6D80
3F00
0C00
0C00
0C00
ENDCHAR
STARTCHAR cyr-kha
ENCODING 245
SWIDTH 437 0
DWIDTH 7 0
BBX 7 16 0 -3
BITMAP
00
00
00
00
00
00
86
6C
38
38
38
6C
86
00
00
00
ENDCHAR
STARTCHAR cyr-tse
ENCODING 246
SWIDTH 500 0
DWIDTH 8 0
BBX 8 16 0 -3
BITMAP
00
00
00
00
00
00
66
66
66
66
66
66
7F
03
03
00
ENDCHAR
STARTCHAR cyr-che
ENCODING 247
SWIDTH 500 0
DWIDTH 8 0
BBX 8 16 0 -3
BITMAP
00
00
00
00
00
00
66
66
66
3E
06
06
06
00
00
00
ENDCHAR
STARTCHAR cyr-sha
ENCODING 248
SWIDTH 750 0
DWIDTH 12 0
BBX 12 16 0 -3
BITMAP
0000
0000
0000
0000
0000
0000
6660
6660
6660
6660
6660
6660
7FE0
0000
0000
0000
ENDCHAR
STARTCHAR cyr-shcha
ENCODING 249
SWIDTH 750 0
DWIDTH 12 0
BBX 12 16 0 -3
BITMAP
0000
0000
0000
0000
0000
0000
6660
6660
6660
6660
6660
6660
7FF0
0030
0030
0000
ENDCHAR
STARTCHAR cyr-ier
ENCODING 250
SWIDTH 625 0
DWIDTH 10 0
BBX 10 16 0 -3
BITMAP
0000
0000
0000
0000
0000
0000
F000
3000
3F00
3180
3180
3180
3F00
0000
0000
0000
ENDCHAR
STARTCHAR cyr-iery
ENCODING 251
SWIDTH 687 0
DWIDTH 11 0
BBX 11 16 0 -3
BITMAP
0000
0000
0000
0000
0000
0000
60C0
60C0
7EC0
63C0
63C0
63C0
7EC0
0000
0000
0000
ENDCHAR
STARTCHAR cyr-ierik
ENCODING 252
SWIDTH 562 0
DWIDTH 9 0
BBX 9 16 0 -3
BITMAP
0000
0000
0000
0000
0000
0000
6000
6000
7E00
6300
6300
6300
7E00
0000
0000
0000
ENDCHAR
STARTCHAR cyr-e-rev
ENCODING 253
SWIDTH 562 0
DWIDTH 9 0
BBX 9 16 0 -3
BITMAP
0000
0000
0000
0000
0000
0000
3E00
6300
0300
1F00
0300
6300
3E00
0000
0000
0000
ENDCHAR
STARTCHAR cyr-yu
ENCODING 254
SWIDTH 625 0
DWIDTH 10 0
BBX 10 16 0 -3
BITMAP
0000
0000
0000
0000
0000
0000
6F00
7980
7980
7980
7980
7980
6F00
0000
0000
0000
ENDCHAR
STARTCHAR cyr-ya
ENCODING 255
SWIDTH 562 0
DWIDTH 9 0
BBX 9 16 0 -3
BITMAP
0000
0000
0000
0000
0000
0000
3F00
6300
6300
6300
3F00
3300
6300
0000
0000
0000
ENDCHAR
ENDFONT
